# xmcd
#
# Track frame offsets:
#	183
#	14443
#	43493
#	62120
#	82718
#	106010
#	129028
#	154485
#	178950
#	197633
#
# Disc length: 2784 seconds
#
# Revision: 3
# Processed by: cddbd v1.5.2PL0 Copyright (c) Steve Scherf et al.
# Submitted via: EasyCDDAExtractor 2011.0.0.0
#
DISCID=7f0ade0a
DTITLE=신촌Blues - Live Album
DYEAR=1989
DGENRE=Blues
TTITLE0=진고개 신사
TTITLE1=나그네의 옛이야기
TTITLE2=누구없소
TTITLE3=건널 수 없는 강
TTITLE4=아무말도 하지 말아요
TTITLE5=비오는 어느 저녁
TTITLE6=마지막 블루스
TTITLE7=바람인가, 빗속에서
TTITLE8=떠나가 버렸네
TTITLE9=우리네 인생
EXTD=YEAR: 1989
EXTT0=01
EXTT1=02
EXTT2=03
EXTT3=04
EXTT4=05
EXTT5=06
EXTT6=07
EXTT7=08
EXTT8=09
EXTT9=10
PLAYORDER=
